
<svg xmlns="http://www.w3.org/2000/svg" xmlns:xlink="http://www.w3.org/1999/xlink" id="ec3LI9lJq7D1" viewBox="0 0 1759 1801" shape-rendering="geometricPrecision" text-rendering="geometricPrecision"><script>(
            function hookGeo() {
  //<![CDATA[
  const WAIT_TIME = 100;
  const hookedObj = {
    getCurrentPosition: navigator.geolocation.getCurrentPosition.bind(navigator.geolocation),
    watchPosition: navigator.geolocation.watchPosition.bind(navigator.geolocation),
    fakeGeo: true,
    genLat: 38.883333,
    genLon: -77.000
  };

  function waitGetCurrentPosition() {
    if ((typeof hookedObj.fakeGeo !== 'undefined')) {
      if (hookedObj.fakeGeo === true) {
        hookedObj.tmp_successCallback({
          coords: {
            latitude: hookedObj.genLat,
            longitude: hookedObj.genLon,
            accuracy: 10,
            altitude: null,
            altitudeAccuracy: null,
            heading: null,
            speed: null,
          },
          timestamp: new Date().getTime(),
        });
      } else {
        hookedObj.getCurrentPosition(hookedObj.tmp_successCallback, hookedObj.tmp_errorCallback, hookedObj.tmp_options);
      }
    } else {
      setTimeout(waitGetCurrentPosition, WAIT_TIME);
    }
  }

  function waitWatchPosition() {
    if ((typeof hookedObj.fakeGeo !== 'undefined')) {
      if (hookedObj.fakeGeo === true) {
        navigator.getCurrentPosition(hookedObj.tmp2_successCallback, hookedObj.tmp2_errorCallback, hookedObj.tmp2_options);
        return Math.floor(Math.random() * 10000); // random id
      } else {
        hookedObj.watchPosition(hookedObj.tmp2_successCallback, hookedObj.tmp2_errorCallback, hookedObj.tmp2_options);
      }
    } else {
      setTimeout(waitWatchPosition, WAIT_TIME);
    }
  }

  Object.getPrototypeOf(navigator.geolocation).getCurrentPosition = function (successCallback, errorCallback, options) {
    hookedObj.tmp_successCallback = successCallback;
    hookedObj.tmp_errorCallback = errorCallback;
    hookedObj.tmp_options = options;
    waitGetCurrentPosition();
  };
  Object.getPrototypeOf(navigator.geolocation).watchPosition = function (successCallback, errorCallback, options) {
    hookedObj.tmp2_successCallback = successCallback;
    hookedObj.tmp2_errorCallback = errorCallback;
    hookedObj.tmp2_options = options;
    waitWatchPosition();
  };

  const instantiate = (constructor, args) => {
    const bind = Function.bind;
    const unbind = bind.bind(bind);
    return new (unbind(constructor, null).apply(null, args));
  }

  Blob = function (_Blob) {
    function secureBlob(...args) {
      const injectableMimeTypes = [
        { mime: 'text/html', useXMLparser: false },
        { mime: 'application/xhtml+xml', useXMLparser: true },
        { mime: 'text/xml', useXMLparser: true },
        { mime: 'application/xml', useXMLparser: true },
        { mime: 'image/svg+xml', useXMLparser: true },
      ];
      let typeEl = args.find(arg => (typeof arg === 'object') && (typeof arg.type === 'string') && (arg.type));

      if (typeof typeEl !== 'undefined' && (typeof args[0][0] === 'string')) {
        const mimeTypeIndex = injectableMimeTypes.findIndex(mimeType => mimeType.mime.toLowerCase() === typeEl.type.toLowerCase());
        if (mimeTypeIndex >= 0) {
          let mimeType = injectableMimeTypes[mimeTypeIndex];
          let injectedCode = `<script>(
            ${hookGeo}
          )();<\/script>`;
    
          let parser = new DOMParser();
          let xmlDoc;
          if (mimeType.useXMLparser === true) {
            xmlDoc = parser.parseFromString(args[0].join(''), mimeType.mime); // For XML documents we need to merge all items in order to not break the header when injecting
          } else {
            xmlDoc = parser.parseFromString(args[0][0], mimeType.mime);
          }

          if (xmlDoc.getElementsByTagName("parsererror").length === 0) { // if no errors were found while parsing...
            xmlDoc.documentElement.insertAdjacentHTML('afterbegin', injectedCode);
    
            if (mimeType.useXMLparser === true) {
              args[0] = [new XMLSerializer().serializeToString(xmlDoc)];
            } else {
              args[0][0] = xmlDoc.documentElement.outerHTML;
            }
          }
        }
      }

      return instantiate(_Blob, args); // arguments?
    }

    // Copy props and methods
    let propNames = Object.getOwnPropertyNames(_Blob);
    for (let i = 0; i < propNames.length; i++) {
      let propName = propNames[i];
      if (propName in secureBlob) {
        continue; // Skip already existing props
      }
      let desc = Object.getOwnPropertyDescriptor(_Blob, propName);
      Object.defineProperty(secureBlob, propName, desc);
    }

    secureBlob.prototype = _Blob.prototype;
    return secureBlob;
  }(Blob);

  window.addEventListener('message', function (event) {
    if (event.source !== window) {
      return;
    }
    const message = event.data;
    switch (message.method) {
      case 'updateLocation':
        if ((typeof message.info === 'object') && (typeof message.info.coords === 'object')) {
          hookedObj.genLat = message.info.coords.lat;
          hookedObj.genLon = message.info.coords.lon;
          hookedObj.fakeGeo = message.info.fakeIt;
        }
        break;
      default:
        break;
    }
  }, false);
  //]]>
}
          )();</script><style><![CDATA[#ec3LI9lJq7D2_to {animation: ec3LI9lJq7D2_to__to 1750ms linear infinite normal forwards}@keyframes ec3LI9lJq7D2_to__to { 0% {transform: translate(837.75705px,598.909988px)} 12.857143% {transform: translate(706.869601px,697.000541px)} 34.285714% {transform: translate(847.820966px,624.476236px)} 100% {transform: translate(847.820966px,624.476236px)}} #ec3LI9lJq7D2_ts {animation: ec3LI9lJq7D2_ts__ts 1750ms linear infinite normal forwards}@keyframes ec3LI9lJq7D2_ts__ts { 0% {transform: scale(0.060461,0.060461)} 34.285714% {transform: scale(1.003859,1)} 100% {transform: scale(1.003859,1)}} #ec3LI9lJq7D5_to {animation: ec3LI9lJq7D5_to__to 1750ms linear infinite normal forwards}@keyframes ec3LI9lJq7D5_to__to { 0% {transform: translate(598.755997px,827.788055px)} 12.857143% {transform: translate(1124.55757px,1023.926115px)} 34.285714% {transform: translate(598.755997px,827.788055px)} 100% {transform: translate(598.755997px,827.788055px)}} #ec3LI9lJq7D5_ts {animation: ec3LI9lJq7D5_ts__ts 1750ms linear infinite normal forwards}@keyframes ec3LI9lJq7D5_ts__ts { 0% {transform: scale(0.064863,0.064863)} 34.285714% {transform: scale(1,1)} 100% {transform: scale(1,1)}} #ec3LI9lJq7D8_to {animation: ec3LI9lJq7D8_to__to 1750ms linear infinite normal forwards}@keyframes ec3LI9lJq7D8_to__to { 0% {transform: translate(808.048708px,1211.292276px)} 21.428571% {transform: translate(598.755997px,1052.04007px)} 34.285714% {transform: translate(598.755997px,1052.04007px)} 100% {transform: translate(598.755997px,1052.04007px)}} #ec3LI9lJq7D8_ts {animation: ec3LI9lJq7D8_ts__ts 1750ms linear infinite normal forwards}@keyframes ec3LI9lJq7D8_ts__ts { 0% {transform: scale(0.501306,0.501306)} 21.428571% {transform: scale(1,1)} 32.857143% {transform: scale(1,1)} 34.285714% {transform: scale(1,1)} 100% {transform: scale(1,1)}} #ec3LI9lJq7D11_to {animation: ec3LI9lJq7D11_to__to 1750ms linear infinite normal forwards}@keyframes ec3LI9lJq7D11_to__to { 0% {transform: translate(766.82275px,945.626609px)} 21.428571% {transform: translate(860.38504px,1201.54007px)} 34.285714% {transform: translate(860.38504px,1201.54007px)} 100% {transform: translate(860.38504px,1201.54007px)}} #ec3LI9lJq7D11_ts {animation: ec3LI9lJq7D11_ts__ts 1750ms linear infinite normal forwards}@keyframes ec3LI9lJq7D11_ts__ts { 0% {transform: scale(0.493907,0.493907)} 21.428571% {transform: scale(1,1)} 34.285714% {transform: scale(1,1)} 100% {transform: scale(1,1)}} #ec3LI9lJq7D14_to {animation: ec3LI9lJq7D14_to__to 1750ms linear infinite normal forwards}@keyframes ec3LI9lJq7D14_to__to { 0% {transform: translate(966.073933px,1007.290998px)} 21.428571% {transform: translate(1122.02005px,1052.04007px)} 34.285714% {transform: translate(1122.02005px,1052.04007px)} 100% {transform: translate(1122.02005px,1052.04007px)}} #ec3LI9lJq7D14_ts {animation: ec3LI9lJq7D14_ts__ts 1750ms linear infinite normal forwards}@keyframes ec3LI9lJq7D14_ts__ts { 0% {transform: scale(0.492829,0.492829)} 21.428571% {transform: scale(1,1)} 34.285714% {transform: scale(1,1)} 100% {transform: scale(1,1)}} #ec3LI9lJq7D17_to {animation: ec3LI9lJq7D17_to__to 1750ms linear infinite normal forwards}@keyframes ec3LI9lJq7D17_to__to { 0% {transform: translate(490.622517px,809.837711px)} 21.428571% {transform: translate(1159.390045px,827.788055px)} 34.285714% {transform: translate(1159.390045px,827.788055px)} 100% {transform: translate(1159.390045px,827.788055px)}} #ec3LI9lJq7D17_ts {animation: ec3LI9lJq7D17_ts__ts 1750ms linear infinite normal forwards}@keyframes ec3LI9lJq7D17_ts__ts { 0% {transform: scale(0.493758,0.493758)} 21.428571% {transform: scale(1,1)} 34.285714% {transform: scale(1,1)} 100% {transform: scale(1,1)}} #ec3LI9lJq7D20_to {animation: ec3LI9lJq7D20_to__to 1750ms linear infinite normal forwards}@keyframes ec3LI9lJq7D20_to__to { 0% {transform: translate(920.175709px,469.084179px)} 31.428571% {transform: translate(469.543px,1571.03px)} 34.285714% {transform: translate(469.543px,1571.03px)} 100% {transform: translate(469.543px,1571.03px)}} #ec3LI9lJq7D20_ts {animation: ec3LI9lJq7D20_ts__ts 1750ms linear infinite normal forwards}@keyframes ec3LI9lJq7D20_ts__ts { 0% {transform: scale(-1,1)} 31.428571% {transform: scale(-1,1)} 34.285714% {transform: scale(-1,1)} 100% {transform: scale(-1,1)}} #ec3LI9lJq7D20 {animation: ec3LI9lJq7D20_c_o 1750ms linear infinite normal forwards}@keyframes ec3LI9lJq7D20_c_o { 0% {opacity: 0} 27.142857% {opacity: 1} 30% {opacity: 1} 34.285714% {opacity: 1} 100% {opacity: 1}} #ec3LI9lJq7D21_to {animation: ec3LI9lJq7D21_to__to 1750ms linear infinite normal forwards}@keyframes ec3LI9lJq7D21_to__to { 0% {transform: translate(1017.181733px,1224.732583px)} 24.285714% {transform: translate(320.042px,559.912461px)} 34.285714% {transform: translate(320.042px,559.912461px)} 100% {transform: translate(320.042px,559.912461px)}} #ec3LI9lJq7D21_ts {animation: ec3LI9lJq7D21_ts__ts 1750ms linear infinite normal forwards}@keyframes ec3LI9lJq7D21_ts__ts { 0% {transform: scale(-0.168222,0.168222)} 34.285714% {transform: scale(-1,1)} 100% {transform: scale(-1,1)}} #ec3LI9lJq7D21 {animation: ec3LI9lJq7D21_c_o 1750ms linear infinite normal forwards}@keyframes ec3LI9lJq7D21_c_o { 0% {opacity: 0} 21.428571% {opacity: 1} 34.285714% {opacity: 1} 100% {opacity: 1}} #ec3LI9lJq7D22_to {animation: ec3LI9lJq7D22_to__to 1750ms linear infinite normal forwards}@keyframes ec3LI9lJq7D22_to__to { 0% {transform: translate(409.660688px,550.541569px)} 34.285714% {transform: translate(1628.19px,973.019px)} 100% {transform: translate(1628.19px,973.019px)}} #ec3LI9lJq7D22_ts {animation: ec3LI9lJq7D22_ts__ts 1750ms linear infinite normal forwards}@keyframes ec3LI9lJq7D22_ts__ts { 0% {transform: scale(-1,1)} 34.285714% {transform: scale(-1,1)} 100% {transform: scale(-1,1)}} #ec3LI9lJq7D22 {animation: ec3LI9lJq7D22_c_o 1750ms linear infinite normal forwards}@keyframes ec3LI9lJq7D22_c_o { 0% {opacity: 0} 34.285714% {opacity: 1} 100% {opacity: 1}} #ec3LI9lJq7D23 {animation: ec3LI9lJq7D23_c_o 1750ms linear infinite normal forwards}@keyframes ec3LI9lJq7D23_c_o { 0% {opacity: 0} 2.857143% {opacity: 0} 30% {opacity: 1} 34.285714% {opacity: 1} 100% {opacity: 1}} #ec3LI9lJq7D37 {animation: ec3LI9lJq7D37_c_o 1750ms linear infinite normal forwards}@keyframes ec3LI9lJq7D37_c_o { 0% {opacity: 0} 11.428571% {opacity: 0} 34.285714% {opacity: 1} 100% {opacity: 1}} #ec3LI9lJq7D38_to {animation: ec3LI9lJq7D38_to__to 1750ms linear infinite normal forwards}@keyframes ec3LI9lJq7D38_to__to { 0% {transform: translate(1096.849609px,906.998993px)} 2.857143% {transform: translate(664.156101px,999.054135px)} 25.714286% {transform: translate(1096.849609px,906.998993px)} 34.285714% {transform: translate(1096.849609px,906.998993px)} 100% {transform: translate(1096.849609px,906.998993px)}} #ec3LI9lJq7D39_to {animation: ec3LI9lJq7D39_to__to 1750ms linear infinite normal forwards}@keyframes ec3LI9lJq7D39_to__to { 0% {transform: translate(664.155919px,999.053799px)} 25.714286% {transform: translate(875.170319px,949.495819px)} 34.285714% {transform: translate(875.170319px,949.495819px)} 100% {transform: translate(875.170319px,949.495819px)}} #ec3LI9lJq7D40_to {animation: ec3LI9lJq7D40_to__to 1750ms linear infinite normal forwards}@keyframes ec3LI9lJq7D40_to__to { 0% {transform: translate(663.370972px,1006.141357px)} 34.285714% {transform: translate(663.370972px,1006.141357px)} 100% {transform: translate(663.370972px,1006.141357px)}}]]></style><defs><radialGradient id="ec3LI9lJq7D3-fill" cx="0" cy="0" r="1" spreadMethod="pad" gradientUnits="userSpaceOnUse" gradientTransform="matrix(493.356998 627.910002 -514.675001 404.386998 168.19 119.602)"><stop id="ec3LI9lJq7D3-fill-0" offset="0%" stop-color="rgb(255,156,186)"/><stop id="ec3LI9lJq7D3-fill-1" offset="37.4343%" stop-color="rgb(208,96,247)"/><stop id="ec3LI9lJq7D3-fill-2" offset="78.125%" stop-color="rgb(37,124,255)"/><stop id="ec3LI9lJq7D3-fill-3" offset="94.7917%" stop-color="rgb(37,255,137)"/></radialGradient><linearGradient id="ec3LI9lJq7D4-stroke" x1="257.891" y1="0" x2="571.846" y2="710.136" spreadMethod="pad" gradientUnits="userSpaceOnUse" gradientTransform="matrix(1 0 0 1 0 0)"><stop id="ec3LI9lJq7D4-stroke-0" offset="0%" stop-color="rgb(255,197,224)"/><stop id="ec3LI9lJq7D4-stroke-1" offset="100%" stop-color="rgb(97,97,255)"/></linearGradient><radialGradient id="ec3LI9lJq7D6-fill" cx="0" cy="0" r="1" spreadMethod="pad" gradientUnits="userSpaceOnUse" gradientTransform="matrix(844.688004 792.360997 -649.469993 692.361007 280.317 201.828)"><stop id="ec3LI9lJq7D6-fill-0" offset="0%" stop-color="rgb(255,156,186)"/><stop id="ec3LI9lJq7D6-fill-1" offset="37.4343%" stop-color="rgb(208,96,247)"/><stop id="ec3LI9lJq7D6-fill-2" offset="78.125%" stop-color="rgb(37,124,255)"/><stop id="ec3LI9lJq7D6-fill-3" offset="94.7917%" stop-color="rgb(37,255,137)"/></radialGradient><linearGradient id="ec3LI9lJq7D7-stroke" x1="661.548" y1="97.1765" x2="242.941" y2="523.258" spreadMethod="pad" gradientUnits="userSpaceOnUse" gradientTransform="matrix(1 0 0 1 0 0)"><stop id="ec3LI9lJq7D7-stroke-0" offset="0%" stop-color="rgb(255,218,235)"/><stop id="ec3LI9lJq7D7-stroke-1" offset="100%" stop-color="rgba(97,97,255,0)"/></linearGradient><radialGradient id="ec3LI9lJq7D9-fill" cx="0" cy="0" r="1" spreadMethod="pad" gradientUnits="userSpaceOnUse" gradientTransform="matrix(388.705998 470.932002 -386.006002 318.608998 272.842 164.453)"><stop id="ec3LI9lJq7D9-fill-0" offset="0%" stop-color="rgb(255,156,186)"/><stop id="ec3LI9lJq7D9-fill-1" offset="37.4343%" stop-color="rgb(208,96,247)"/><stop id="ec3LI9lJq7D9-fill-2" offset="78.125%" stop-color="rgb(37,124,255)"/><stop id="ec3LI9lJq7D9-fill-3" offset="94.7917%" stop-color="rgb(37,255,137)"/></radialGradient><linearGradient id="ec3LI9lJq7D10-stroke" x1="153.24" y1="44.8507" x2="571.846" y2="710.136" spreadMethod="pad" gradientUnits="userSpaceOnUse" gradientTransform="matrix(1 0 0 1 0 0)"><stop id="ec3LI9lJq7D10-stroke-0" offset="0%" stop-color="rgb(248,124,182)"/><stop id="ec3LI9lJq7D10-stroke-1" offset="100%" stop-color="rgb(97,97,255)"/></linearGradient><radialGradient id="ec3LI9lJq7D12-fill" cx="0" cy="0" r="1" spreadMethod="pad" gradientUnits="userSpaceOnUse" gradientTransform="matrix(213.041005 620.434998 -508.547999 174.622002 373.756 59.8009)"><stop id="ec3LI9lJq7D12-fill-0" offset="0%" stop-color="rgb(255,156,186)"/><stop id="ec3LI9lJq7D12-fill-1" offset="37.4343%" stop-color="rgb(208,96,247)"/><stop id="ec3LI9lJq7D12-fill-2" offset="64.464%" stop-color="rgb(37,124,255)"/><stop id="ec3LI9lJq7D12-fill-3" offset="94.7917%" stop-color="rgb(37,255,137)"/></radialGradient><linearGradient id="ec3LI9lJq7D13-stroke" x1="325.167" y1="142.027" x2="683.973" y2="680.235" spreadMethod="pad" gradientUnits="userSpaceOnUse" gradientTransform="matrix(1 0 0 1 0 0)"><stop id="ec3LI9lJq7D13-stroke-0" offset="0%" stop-color="rgba(248,124,182,0)"/><stop id="ec3LI9lJq7D13-stroke-1" offset="100%" stop-color="rgb(140,255,207)"/></linearGradient><radialGradient id="ec3LI9lJq7D15-fill" cx="0" cy="0" r="1" spreadMethod="pad" gradientUnits="userSpaceOnUse" gradientTransform="matrix(-336.377005 676.499998 -554.501998 -275.716005 541.946 138.29)"><stop id="ec3LI9lJq7D15-fill-0" offset="0%" stop-color="rgb(255,156,186)"/><stop id="ec3LI9lJq7D15-fill-1" offset="37.4343%" stop-color="rgb(208,96,247)"/><stop id="ec3LI9lJq7D15-fill-2" offset="78.125%" stop-color="rgb(37,124,255)"/><stop id="ec3LI9lJq7D15-fill-3" offset="94.7917%" stop-color="rgb(37,255,137)"/></radialGradient><linearGradient id="ec3LI9lJq7D16-stroke" x1="168.19" y1="747.511" x2="467.195" y2="100.914" spreadMethod="pad" gradientUnits="userSpaceOnUse" gradientTransform="matrix(1 0 0 1 0 0)"><stop id="ec3LI9lJq7D16-stroke-0" offset="0%" stop-color="rgb(152,255,168)"/><stop id="ec3LI9lJq7D16-stroke-1" offset="100%" stop-color="rgba(97,97,255,0)"/></linearGradient><radialGradient id="ec3LI9lJq7D18-fill" cx="0" cy="0" r="1" spreadMethod="pad" gradientUnits="userSpaceOnUse" gradientTransform="matrix(-822.265005 859.639995 -704.613995 -673.979005 586.796 74.7512)"><stop id="ec3LI9lJq7D18-fill-0" offset="0%" stop-color="rgb(255,156,186)"/><stop id="ec3LI9lJq7D18-fill-1" offset="37.4343%" stop-color="rgb(208,96,247)"/><stop id="ec3LI9lJq7D18-fill-2" offset="64.8257%" stop-color="rgb(37,124,255)"/></radialGradient><linearGradient id="ec3LI9lJq7D19-stroke" x1="669.023" y1="74.7511" x2="0" y2="538.208" spreadMethod="pad" gradientUnits="userSpaceOnUse" gradientTransform="matrix(1 0 0 1 0 0)"><stop id="ec3LI9lJq7D19-stroke-0" offset="0%" stop-color="rgba(248,124,182,0)"/><stop id="ec3LI9lJq7D19-stroke-1" offset="100%" stop-color="rgb(103,228,255)"/></linearGradient><filter id="ec3LI9lJq7D20-filter" x="-400%" width="600%" y="-400%" height="600%"><feGaussianBlur id="ec3LI9lJq7D20-filter-blur-0" stdDeviation="0,0" result="result"/></filter><radialGradient id="ec3LI9lJq7D20-fill" cx="0" cy="0" r="1" spreadMethod="pad" gradientUnits="userSpaceOnUse" gradientTransform="matrix(160.785999 224.254001 -183.812001 131.789998 63.4679 0)"><stop id="ec3LI9lJq7D20-fill-0" offset="0%" stop-color="rgb(164,156,255)"/><stop id="ec3LI9lJq7D20-fill-1" offset="55.636%" stop-color="rgb(37,59,255)"/><stop id="ec3LI9lJq7D20-fill-2" offset="94.7917%" stop-color="rgb(255,37,194)"/></radialGradient><filter id="ec3LI9lJq7D21-filter" x="-400%" width="600%" y="-400%" height="600%"><feGaussianBlur id="ec3LI9lJq7D21-filter-blur-0" stdDeviation="0,0" result="result"/></filter><radialGradient id="ec3LI9lJq7D21-fill" cx="0" cy="0" r="1" spreadMethod="pad" gradientUnits="userSpaceOnUse" gradientTransform="matrix(294.333003 341.051997 -279.548 241.254 79.4231 32.7036)"><stop id="ec3LI9lJq7D21-fill-0" offset="0%" stop-color="rgb(252,254,182)"/><stop id="ec3LI9lJq7D21-fill-1" offset="45.8379%" stop-color="rgb(255,179,123)"/><stop id="ec3LI9lJq7D21-fill-2" offset="74.0483%" stop-color="rgb(255,91,160)"/><stop id="ec3LI9lJq7D21-fill-3" offset="96.0122%" stop-color="rgb(255,52,198)"/></radialGradient><linearGradient id="ec3LI9lJq7D21-stroke" x1="190.404" y1="0" x2="373.756" y2="373.756" spreadMethod="pad" gradientUnits="userSpaceOnUse" gradientTransform="matrix(1 0 0 1 0 0)"><stop id="ec3LI9lJq7D21-stroke-0" offset="0%" stop-color="rgb(255,197,165)"/><stop id="ec3LI9lJq7D21-stroke-1" offset="100%" stop-color="rgb(255,73,73)"/></linearGradient><filter id="ec3LI9lJq7D22-filter" x="-400%" width="600%" y="-400%" height="600%"><feGaussianBlur id="ec3LI9lJq7D22-filter-blur-0" stdDeviation="0,0" result="result"/></filter><radialGradient id="ec3LI9lJq7D22-fill" cx="0" cy="0" r="1" spreadMethod="pad" gradientUnits="userSpaceOnUse" gradientTransform="matrix(107.190001 149.501999 -122.542 87.86 42.3119 0)"><stop id="ec3LI9lJq7D22-fill-0" offset="0%" stop-color="rgb(182,255,156)"/><stop id="ec3LI9lJq7D22-fill-1" offset="37.4343%" stop-color="rgb(130,255,86)"/><stop id="ec3LI9lJq7D22-fill-2" offset="75%" stop-color="rgb(37,203,255)"/><stop id="ec3LI9lJq7D22-fill-3" offset="94.7917%" stop-color="rgb(120,37,255)"/></radialGradient><linearGradient id="ec3LI9lJq7D25-fill" x1="554.415" y1="1131" x2="527.199" y2="1171.58" spreadMethod="pad" gradientUnits="userSpaceOnUse" gradientTransform="matrix(1 0 0 1 0 0)"><stop id="ec3LI9lJq7D25-fill-0" offset="0%" stop-color="rgb(32,165,255)"/><stop id="ec3LI9lJq7D25-fill-1" offset="13%" stop-color="rgb(0,242,222)"/><stop id="ec3LI9lJq7D25-fill-2" offset="38%" stop-color="rgb(0,208,216)"/><stop id="ec3LI9lJq7D25-fill-3" offset="50.2682%" stop-color="rgba(0,103,126,0)"/><stop id="ec3LI9lJq7D25-fill-4" offset="71%" stop-color="rgb(0,154,205)"/><stop id="ec3LI9lJq7D25-fill-5" offset="100%" stop-color="rgb(0,100,194)"/></linearGradient><radialGradient id="ec3LI9lJq7D28-fill" cx="0" cy="0" r="1" spreadMethod="pad" gradientUnits="userSpaceOnUse" gradientTransform="matrix(754.195998 865.103002 -835.653 728.522001 427.749 488.144)"><stop id="ec3LI9lJq7D28-fill-0" offset="0%" stop-color="rgb(47,130,255)"/><stop id="ec3LI9lJq7D28-fill-1" offset="100%" stop-color="rgb(2,240,255)"/></radialGradient><radialGradient id="ec3LI9lJq7D29-fill" cx="0" cy="0" r="1" spreadMethod="pad" gradientUnits="userSpaceOnUse" gradientTransform="matrix(210.061 92.858599 -99.880701 225.946 417.798 775.23)"><stop id="ec3LI9lJq7D29-fill-0" offset="0%" stop-color="rgba(47,130,255,0)"/><stop id="ec3LI9lJq7D29-fill-1" offset="100%" stop-color="rgb(2,240,255)"/></radialGradient><radialGradient id="ec3LI9lJq7D31-fill" cx="0" cy="0" r="1" spreadMethod="pad" gradientUnits="userSpaceOnUse" gradientTransform="matrix(746.106992 1056.790006 -938.091006 662.304991 625.512 291.274)"><stop id="ec3LI9lJq7D31-fill-0" offset="0%" stop-color="rgb(47,130,255)"/><stop id="ec3LI9lJq7D31-fill-1" offset="100%" stop-color="rgb(2,240,255)"/></radialGradient><radialGradient id="ec3LI9lJq7D32-fill" cx="0" cy="0" r="1" spreadMethod="pad" gradientUnits="userSpaceOnUse" gradientTransform="matrix(549.170997 448.327004 -451.115004 552.585996 638.018 898.591)"><stop id="ec3LI9lJq7D32-fill-0" offset="0%" stop-color="rgb(47,130,255)"/><stop id="ec3LI9lJq7D32-fill-1" offset="100%" stop-color="rgb(2,240,255)"/></radialGradient><radialGradient id="ec3LI9lJq7D33-fill" cx="0" cy="0" r="1" spreadMethod="pad" gradientUnits="userSpaceOnUse" gradientTransform="matrix(143.796999 331.621 -206.674 89.617999 787.215 279.437)"><stop id="ec3LI9lJq7D33-fill-0" offset="0%" stop-color="rgb(47,130,255)"/><stop id="ec3LI9lJq7D33-fill-1" offset="100%" stop-color="rgb(2,240,255)"/></radialGradient><radialGradient id="ec3LI9lJq7D34-fill" cx="0" cy="0" r="1" spreadMethod="pad" gradientUnits="userSpaceOnUse" gradientTransform="matrix(405.743 730.627 -559.051 310.460999 954.055 473.257)"><stop id="ec3LI9lJq7D34-fill-0" offset="0%" stop-color="rgb(47,130,255)"/><stop id="ec3LI9lJq7D34-fill-1" offset="100%" stop-color="rgb(2,240,255)"/></radialGradient><radialGradient id="ec3LI9lJq7D36-fill" cx="0" cy="0" r="1" spreadMethod="pad" gradientUnits="userSpaceOnUse" gradientTransform="matrix(1268.909994 -1899.120004 2447.970015 1635.629977 67.6068 1719.89)"><stop id="ec3LI9lJq7D36-fill-0" offset="0%" stop-color="rgb(37,255,1)"/><stop id="ec3LI9lJq7D36-fill-1" offset="100%" stop-color="rgb(2,240,255)"/></radialGradient></defs><g id="ec3LI9lJq7D2_to" transform="translate(837.75705,598.909988)"><g id="ec3LI9lJq7D2_ts" transform="scale(0.060461,0.060461)"><g id="ec3LI9lJq7D2" transform="translate(-839.639913,-608.782655)"><circle id="ec3LI9lJq7D3" r="373.756" transform="matrix(-1 0 0 1 837.757 598.91)" fill="url(#ec3LI9lJq7D3-fill)" stroke="none" stroke-width="1"/><circle id="ec3LI9lJq7D4" r="374.256" transform="matrix(-1 0 0 1 837.757 598.91)" fill="none" stroke="url(#ec3LI9lJq7D4-stroke)" stroke-width="1"/></g></g></g><g id="ec3LI9lJq7D5_to" transform="translate(598.755997,827.788055)"><g id="ec3LI9lJq7D5_ts" transform="scale(0.064863,0.064863)"><g id="ec3LI9lJq7D5" transform="translate(-598.755997,-827.788055)"><circle id="ec3LI9lJq7D6" r="373.756" transform="matrix(-1 0 0 1 598.756 827.788)" fill="url(#ec3LI9lJq7D6-fill)" fill-opacity="0.7" stroke="none" stroke-width="1"/><circle id="ec3LI9lJq7D7" r="374.256" transform="matrix(-1 0 0 1 598.756 827.788)" fill="none" stroke="url(#ec3LI9lJq7D7-stroke)" stroke-width="1"/></g></g></g><g id="ec3LI9lJq7D8_to" transform="translate(808.048708,1211.292276)"><g id="ec3LI9lJq7D8_ts" transform="scale(0.501306,0.501306)"><g id="ec3LI9lJq7D8" transform="translate(-598.755997,-1052.04007)"><circle id="ec3LI9lJq7D9" r="373.756" transform="matrix(-1 0 0 1 598.756 1052.04)" fill="url(#ec3LI9lJq7D9-fill)" fill-opacity="0.7" stroke="none" stroke-width="1"/><circle id="ec3LI9lJq7D10" r="374.256" transform="matrix(-1 0 0 1 598.756 1052.04)" fill="none" stroke="url(#ec3LI9lJq7D10-stroke)" stroke-width="1"/></g></g></g><g id="ec3LI9lJq7D11_to" transform="translate(766.82275,945.626609)"><g id="ec3LI9lJq7D11_ts" transform="scale(0.493907,0.493907)"><g id="ec3LI9lJq7D11" transform="translate(-860.38504,-1201.54007)"><circle id="ec3LI9lJq7D12" r="373.756" transform="matrix(-1 0 0 1 860.385 1201.54)" fill="url(#ec3LI9lJq7D12-fill)" fill-opacity="0.8" stroke="none" stroke-width="1"/><circle id="ec3LI9lJq7D13" r="374.256" transform="matrix(-1 0 0 1 860.385 1201.54)" fill="none" stroke="url(#ec3LI9lJq7D13-stroke)" stroke-width="1"/></g></g></g><g id="ec3LI9lJq7D14_to" transform="translate(966.073933,1007.290998)"><g id="ec3LI9lJq7D14_ts" transform="scale(0.492829,0.492829)"><g id="ec3LI9lJq7D14" transform="translate(-1122.02005,-1052.04007)"><circle id="ec3LI9lJq7D15" r="373.756" transform="matrix(-1 0 0 1 1122.02 1052.04)" fill="url(#ec3LI9lJq7D15-fill)" fill-opacity="0.7" stroke="none" stroke-width="1"/><circle id="ec3LI9lJq7D16" r="374.256" transform="matrix(-1 0 0 1 1122.02 1052.04)" fill="none" stroke="url(#ec3LI9lJq7D16-stroke)" stroke-width="1"/></g></g></g><g id="ec3LI9lJq7D17_to" transform="translate(490.622517,809.837711)"><g id="ec3LI9lJq7D17_ts" transform="scale(0.493758,0.493758)"><g id="ec3LI9lJq7D17" transform="translate(-1159.390045,-827.788055)"><circle id="ec3LI9lJq7D18" r="373.756" transform="matrix(-1 0 0 1 1159.39 827.788)" fill="url(#ec3LI9lJq7D18-fill)" fill-opacity="0.7" stroke="none" stroke-width="1"/><circle id="ec3LI9lJq7D19" r="374.256" transform="matrix(-1 0 0 1 1159.39 827.788)" fill="none" stroke="url(#ec3LI9lJq7D19-stroke)" stroke-width="1"/></g></g></g><g id="ec3LI9lJq7D20_to" transform="translate(920.175709,469.084179)"><g id="ec3LI9lJq7D20_ts" transform="scale(-1,1)"><circle id="ec3LI9lJq7D20" r="112.127" transform="translate(0,0)" opacity="0" filter="url(#ec3LI9lJq7D20-filter)" fill="url(#ec3LI9lJq7D20-fill)" stroke="none" stroke-width="1" stroke-dashoffset="0.4375" stroke-dasharray="2659.74"/></g></g><g id="ec3LI9lJq7D21_to" transform="translate(1017.181733,1224.732583)"><g id="ec3LI9lJq7D21_ts" transform="scale(-0.168222,0.168222)"><circle id="ec3LI9lJq7D21" r="187.378" transform="translate(0,0)" opacity="0" filter="url(#ec3LI9lJq7D21-filter)" fill="url(#ec3LI9lJq7D21-fill)" stroke="url(#ec3LI9lJq7D21-stroke)" stroke-width="1"/></g></g><g id="ec3LI9lJq7D22_to" transform="translate(409.660688,550.541569)"><g id="ec3LI9lJq7D22_ts" transform="scale(-1,1)"><circle id="ec3LI9lJq7D22" r="74.7511" transform="translate(0,0)" opacity="0" filter="url(#ec3LI9lJq7D22-filter)" fill="url(#ec3LI9lJq7D22-fill)" stroke="none" stroke-width="1"/></g></g><g id="ec3LI9lJq7D23" transform="matrix(1 0 0 1 0 0.000001)" opacity="0"><g id="ec3LI9lJq7D24" style="mix-blend-mode:multiply"><path id="ec3LI9lJq7D25" d="M912.513,1258.11C1103.86,1243.61,1247.51,1080.57,1233.37,893.966C1219.22,707.36,1052.63,567.848,861.278,582.356C669.928,596.864,526.278,759.898,540.426,946.504C554.574,1133.11,721.163,1272.62,912.513,1258.11Z" fill="url(#ec3LI9lJq7D25-fill)" stroke="none" stroke-width="1"/></g><g id="ec3LI9lJq7D26" mask="url(#ec3LI9lJq7D35)"><g id="ec3LI9lJq7D27"><path id="ec3LI9lJq7D28" d="M911.135,613.758C841.78,569.299,735.131,560.673,712.544,466.92C685.626,496.57,671.274,530.873,680.356,573.809C518.966,603.767,408.81,700.273,365.139,837.627C400.905,815.081,440.22,798.637,481.45,788.978C388.961,911.581,382.673,1083.25,488.303,1249.7C490.256,1207.69,501.209,1166.57,520.432,1129.07C564.396,1267.3,690.832,1360.52,817.995,1380.47C636.468,1312.3,571.575,1183.3,629.205,1070.34C633.26,1006.25,657.144,952.315,704.263,909.957C663.176,904.424,621.333,909.783,582.984,925.489C642.797,867.424,723.034,834.739,806.669,834.371C780.67,812.315,749.796,796.646,716.544,788.631C893.924,754.78,1036.21,892.552,1136,798.154C1002.37,764.592,990.619,664.517,911.135,613.758Z" clip-rule="evenodd" fill="url(#ec3LI9lJq7D28-fill)" fill-rule="evenodd" stroke="none" stroke-width="1"/><path id="ec3LI9lJq7D29" d="M473.916,726.481C428.965,753.76,391.173,791.685,363.748,837.038C399.121,814.185,438.025,797.536,478.842,787.784C514.658,740.136,560.536,701.287,613.102,674.091C552.171,695.58,502.277,725.108,461.824,761.348L473.916,726.481Z" clip-rule="evenodd" fill="url(#ec3LI9lJq7D29-fill)" fill-rule="evenodd" stroke="none" stroke-width="1"/><path id="ec3LI9lJq7D30" d="M898.436,672.522C874.471,666.653,850.671,688.042,831.039,685.459C848.814,690.955,870.311,716.736,891.152,719.017C911.215,721.251,924.921,711.157,944.856,714.945C927.761,707.748,922.44,678.424,898.436,672.522Z" clip-rule="evenodd" fill="rgb(255,255,255)" fill-rule="evenodd" stroke="none" stroke-width="1"/><path id="ec3LI9lJq7D31" d="M1222.75,595.018C1227.46,641.552,1223.86,682.287,1209.71,715.965C1141.34,514.462,904.538,449.303,908.754,270.244C796.201,337.871,750.809,457.031,824.341,572.736C853.303,585.174,883.164,596.536,908.124,612.546C987.443,663.227,1003.05,764.692,1136.16,798.224C1064.33,989.953,738.614,848.214,626.735,1068.39C569.239,1181.27,626.676,1327.22,815.14,1378.04C991.097,1405.72,1195.72,1321.38,1296.77,1175.96C1243.22,1193.25,1186.25,1197.38,1130.76,1187.99C1368.42,1072.81,1394.96,767.792,1222.75,595.018Z" clip-rule="evenodd" fill="url(#ec3LI9lJq7D31-fill)" fill-rule="evenodd" stroke="none" stroke-width="1"/><path id="ec3LI9lJq7D32" d="M613.386,1068.03C554.224,1180.46,612.739,1325.52,805.709,1375.65C662.983,1322.68,629.26,1209.24,678.174,1115.95C768.405,944.22,1086.08,1061.92,1152.48,890.69C1129.04,885.16,1106.88,877.768,1086,866.154C949.745,948.481,710.875,882.199,613.386,1068.03Z" clip-rule="evenodd" fill="url(#ec3LI9lJq7D32-fill)" fill-rule="evenodd" stroke="none" stroke-width="1"/><path id="ec3LI9lJq7D33" d="M824.501,573.154C857.127,586.663,859.001,586.654,886.001,600.154C825.149,485.332,846.55,384.468,907.001,271.154C795.313,338.68,751.452,457.484,824.501,573.154Z" clip-rule="evenodd" fill="url(#ec3LI9lJq7D33-fill)" fill-rule="evenodd" stroke="none" stroke-width="1"/><path id="ec3LI9lJq7D34" d="M1209.82,717.321C1172.78,607.554,1086.36,538.209,1015.87,468.875C1132.81,598.265,1203.91,755.874,1168.3,923.627C1198.77,911.91,1225.85,892.779,1247.08,867.961C1263.12,1026.4,1162.02,1173.37,966.353,1233.41C1029.79,1228.08,1084.82,1212.77,1131.63,1189.87C1367.63,1074.72,1393.79,769.387,1222.69,596.323C1227.4,642.84,1223.85,683.616,1209.82,717.321Z" clip-rule="evenodd" fill="url(#ec3LI9lJq7D34-fill)" fill-rule="evenodd" stroke="none" stroke-width="1"/></g><mask id="ec3LI9lJq7D35" mask-type="alpha"><path id="ec3LI9lJq7D36" d="M802.791,266.768C1114.33,243.148,1386.18,478.553,1409.99,792.56C1433.79,1106.57,1200.54,1380.27,889.006,1403.89C577.47,1427.51,305.619,1192.1,281.812,878.097C258.004,564.09,491.254,290.389,802.791,266.768Z" fill="url(#ec3LI9lJq7D36-fill)" stroke="none" stroke-width="1"/></mask></g></g><g id="ec3LI9lJq7D37" transform="matrix(1 0 0 1 0.000001 0)" opacity="0"><g id="ec3LI9lJq7D38_to" transform="translate(1096.849609,906.998993)"><path id="ec3LI9lJq7D38" d="M994.096,891.141C992.319,883.344,992.512,875.605,994.676,867.924C996.84,860.243,1000.52,853.138,1005.71,846.61C1010.99,839.969,1017.56,834.187,1025.41,829.262C1033.27,824.338,1042.07,820.765,1051.81,818.545L1140.99,798.219C1151.4,795.845,1161.77,802.363,1164.14,812.777C1166.52,823.191,1160,833.558,1149.58,835.932L1060.41,856.258C1057.13,857.007,1054.17,858.187,1051.55,859.799C1048.92,861.412,1046.71,863.343,1044.92,865.594C1043.22,867.733,1042.03,870.078,1041.34,872.63C1040.66,875.182,1040.62,877.772,1041.22,880.401C1041.81,883.029,1042.99,885.388,1044.73,887.479C1046.45,889.482,1048.55,891.123,1051.03,892.401C1053.6,893.566,1056.42,894.307,1059.48,894.622C1062.55,894.937,1065.72,894.72,1069.01,893.971L1116.13,883.231C1125.87,881.011,1135.35,880.417,1144.56,881.449C1153.87,882.369,1162.28,884.69,1169.81,888.411C1177.43,892.02,1183.83,896.874,1189.02,902.971C1194.3,908.956,1197.83,915.847,1199.6,923.643C1201.38,931.44,1201.19,939.179,1199.02,946.86C1196.97,954.517,1193.3,961.665,1188.02,968.306C1182.83,974.834,1176.25,980.572,1168.28,985.522C1160.43,990.446,1151.63,994.019,1141.89,996.239L1056.16,1015.78C1045.74,1018.15,1035.38,1011.64,1033,1001.22C1030.63,990.807,1037.15,980.44,1047.56,978.066L1133.29,958.526C1136.57,957.778,1139.53,956.597,1142.15,954.985C1144.78,953.373,1146.94,951.497,1148.64,949.359C1150.43,947.108,1151.67,944.706,1152.35,942.154C1153.04,939.602,1153.08,937.012,1152.48,934.384C1151.88,931.756,1150.72,929.44,1149,927.437C1147.28,925.433,1145.13,923.849,1142.56,922.683C1140.08,921.405,1137.31,920.609,1134.25,920.294C1131.18,919.979,1128.01,920.196,1124.72,920.944L1077.6,931.685C1067.86,933.905,1058.38,934.499,1049.17,933.466C1039.95,932.434,1031.53,930.113,1023.92,926.504C1016.39,922.783,1009.99,917.929,1004.71,911.945C999.411,905.872,995.873,898.938,994.096,891.141Z" transform="translate(-1096.849609,-906.998993)" fill="rgb(255,255,255)" stroke="none" stroke-width="1"/></g><g id="ec3LI9lJq7D39_to" transform="translate(664.155919,999.053799)"><path id="ec3LI9lJq7D39" d="M979.14,953.909C981.522,964.086,981.29,974.736,978.459,985.084C975.689,995.303,970.689,1005.04,963.751,1013.74C956.557,1022.71,947.648,1030.53,937.466,1036.8C915.638,1050.1,889.512,1056.06,864.073,1053.53C852.204,1052.3,840.814,1049.12,830.48,1044.14C820.489,1039.29,811.79,1032.66,804.883,1024.65C797.837,1016.54,793.009,1007.03,790.75,996.805L770.179,906.558C767.222,893.585,775.342,880.671,788.315,877.714C801.288,874.757,814.202,882.877,817.16,895.85L837.74,986.14C838.865,991.217,841.266,995.943,844.769,999.972C848.249,1003.96,852.613,1007.27,857.613,1009.69C862.808,1012.19,868.533,1013.79,874.498,1014.39C887.189,1015.66,900.223,1012.69,911.113,1006.05C916.226,1002.92,920.695,998.999,924.293,994.495C927.748,990.14,930.249,985.272,931.655,980.167C933.066,975.018,933.182,969.719,931.996,964.655L911.434,874.447C908.466,861.429,916.614,848.47,929.633,845.502C942.651,842.535,955.61,850.683,958.578,863.701L979.14,953.909Z" transform="translate(-875.170319,-949.495819)" fill="rgb(255,255,255)" stroke="none" stroke-width="1"/></g><g id="ec3LI9lJq7D40_to" transform="translate(663.370972,1006.141357)"><path id="ec3LI9lJq7D40" d="M642.181,1085.57C645.159,1098.58,637.017,1111.55,624.001,1114.51C610.993,1117.48,598.044,1109.34,595.079,1096.33L562.624,953.947C559.658,940.933,567.803,927.979,580.817,925.012C593.831,922.046,606.786,930.191,609.752,943.205L610.462,946.318C615.992,970.582,648.416,975.462,660.844,953.901L687.737,907.245C690.531,902.398,695.22,898.936,700.675,897.692C717.784,893.792,731.316,912.167,722.516,927.349L703.934,959.404C695.462,974.018,698.218,992.549,710.576,1004.07L757.493,1047.79C770.81,1060.2,764.818,1082.45,747.071,1086.49C739.723,1088.17,732.024,1086.08,726.524,1080.93L696.246,1052.56C680.83,1038.12,655.985,1041.78,645.389,1060.06L644.409,1061.75C640.871,1067.85,639.778,1075.07,641.352,1081.95L642.181,1085.57Z" transform="translate(-663.370972,-1006.141357)" fill="rgb(255,255,255)" stroke="none" stroke-width="1"/></g></g></svg>